<svg id="visual" viewBox="0 0 900 600" width="900" height="600" xmlns="http://www.w3.org/2000/svg" xmlns:xlink="http://www.w3.org/1999/xlink" version="1.1"><rect x="0" y="0" width="900" height="600" fill="#FFFFFF"></rect><path d="M0 343L18.8 350.3C37.7 357.7 75.3 372.3 112.8 382.2C150.3 392 187.7 397 225.2 394.3C262.7 391.7 300.3 381.3 337.8 380.3C375.3 379.3 412.7 387.7 450.2 389.5C487.7 391.3 525.3 386.7 562.8 382C600.3 377.3 637.7 372.7 675.2 379.3C712.7 386 750.3 404 787.8 403.7C825.3 403.3 862.7 384.7 881.3 375.3L900 366L900 601L881.3 601C862.7 601 825.3 601 787.8 601C750.3 601 712.7 601 675.2 601C637.7 601 600.3 601 562.8 601C525.3 601 487.7 601 450.2 601C412.7 601 375.3 601 337.8 601C300.3 601 262.7 601 225.2 601C187.7 601 150.3 601 112.8 601C75.3 601 37.7 601 18.8 601L0 601Z" fill="#dfefef"></path><path d="M0 425L18.8 429.2C37.7 433.3 75.3 441.7 112.8 445.2C150.3 448.7 187.7 447.3 225.2 436.8C262.7 426.3 300.3 406.7 337.8 399.5C375.3 392.3 412.7 397.7 450.2 404.5C487.7 411.3 525.3 419.7 562.8 416.3C600.3 413 637.7 398 675.2 390.2C712.7 382.3 750.3 381.7 787.8 386.8C825.3 392 862.7 403 881.3 408.5L900 414L900 601L881.3 601C862.7 601 825.3 601 787.8 601C750.3 601 712.7 601 675.2 601C637.7 601 600.3 601 562.8 601C525.3 601 487.7 601 450.2 601C412.7 601 375.3 601 337.8 601C300.3 601 262.7 601 225.2 601C187.7 601 150.3 601 112.8 601C75.3 601 37.7 601 18.8 601L0 601Z" fill="#bad6d6"></path><path d="M0 492L18.8 493.5C37.7 495 75.3 498 112.8 488.8C150.3 479.7 187.7 458.3 225.2 451C262.7 443.7 300.3 450.3 337.8 459.2C375.3 468 412.7 479 450.2 474C487.7 469 525.3 448 562.8 442.8C600.3 437.7 637.7 448.3 675.2 451.2C712.7 454 750.3 449 787.8 456.7C825.3 464.3 862.7 484.7 881.3 494.8L900 505L900 601L881.3 601C862.7 601 825.3 601 787.8 601C750.3 601 712.7 601 675.2 601C637.7 601 600.3 601 562.8 601C525.3 601 487.7 601 450.2 601C412.7 601 375.3 601 337.8 601C300.3 601 262.7 601 225.2 601C187.7 601 150.3 601 112.8 601C75.3 601 37.7 601 18.8 601L0 601Z" fill="#95bdbd"></path><path d="M0 482L18.8 492.7C37.7 503.3 75.3 524.7 112.8 531.3C150.3 538 187.7 530 225.2 519.3C262.7 508.7 300.3 495.3 337.8 493C375.3 490.7 412.7 499.3 450.2 499.8C487.7 500.3 525.3 492.7 562.8 491.3C600.3 490 637.7 495 675.2 502.8C712.7 510.7 750.3 521.3 787.8 519.5C825.3 517.7 862.7 503.3 881.3 496.2L900 489L900 601L881.3 601C862.7 601 825.3 601 787.8 601C750.3 601 712.7 601 675.2 601C637.7 601 600.3 601 562.8 601C525.3 601 487.7 601 450.2 601C412.7 601 375.3 601 337.8 601C300.3 601 262.7 601 225.2 601C187.7 601 150.3 601 112.8 601C75.3 601 37.7 601 18.8 601L0 601Z" fill="#70a5a5"></path><path d="M0 527L18.8 531C37.7 535 75.3 543 112.8 550.5C150.3 558 187.7 565 225.2 563.3C262.7 561.7 300.3 551.3 337.8 549.7C375.3 548 412.7 555 450.2 560C487.7 565 525.3 568 562.8 566.8C600.3 565.7 637.7 560.3 675.2 559.7C712.7 559 750.3 563 787.8 558.3C825.3 553.7 862.7 540.3 881.3 533.7L900 527L900 601L881.3 601C862.7 601 825.3 601 787.8 601C750.3 601 712.7 601 675.2 601C637.7 601 600.3 601 562.8 601C525.3 601 487.7 601 450.2 601C412.7 601 375.3 601 337.8 601C300.3 601 262.7 601 225.2 601C187.7 601 150.3 601 112.8 601C75.3 601 37.7 601 18.8 601L0 601Z" fill="#488d8d"></path></svg>