<svg id="visual" viewBox="0 0 960 540" width="960" height="540" xmlns="http://www.w3.org/2000/svg" xmlns:xlink="http://www.w3.org/1999/xlink" version="1.1"><path d="M0 309L20 315.5C40 322 80 335 120 343.8C160 352.7 200 357.3 240 355C280 352.7 320 343.3 360 342.5C400 341.7 440 349.3 480 351C520 352.7 560 348.3 600 344C640 339.7 680 335.3 720 341.3C760 347.3 800 363.7 840 363.3C880 363 920 346 940 337.5L960 329L960 541L940 541C920 541 880 541 840 541C800 541 760 541 720 541C680 541 640 541 600 541C560 541 520 541 480 541C440 541 400 541 360 541C320 541 280 541 240 541C200 541 160 541 120 541C80 541 40 541 20 541L0 541Z" fill="#dfefef"></path><path d="M0 382L20 385.8C40 389.7 80 397.3 120 400.5C160 403.7 200 402.3 240 392.8C280 383.3 320 365.7 360 359.2C400 352.7 440 357.3 480 363.5C520 369.7 560 377.3 600 374.5C640 371.7 680 358.3 720 351.3C760 344.3 800 343.7 840 348.2C880 352.7 920 362.3 940 367.2L960 372L960 541L940 541C920 541 880 541 840 541C800 541 760 541 720 541C680 541 640 541 600 541C560 541 520 541 480 541C440 541 400 541 360 541C320 541 280 541 240 541C200 541 160 541 120 541C80 541 40 541 20 541L0 541Z" fill="#bad6d6"></path><path d="M0 443L20 444.3C40 445.7 80 448.3 120 440C160 431.7 200 412.3 240 405.7C280 399 320 405 360 412.8C400 420.7 440 430.3 480 425.8C520 421.3 560 402.7 600 398.2C640 393.7 680 403.3 720 405.8C760 408.3 800 403.7 840 410.5C880 417.3 920 435.7 940 444.8L960 454L960 541L940 541C920 541 880 541 840 541C800 541 760 541 720 541C680 541 640 541 600 541C560 541 520 541 480 541C440 541 400 541 360 541C320 541 280 541 240 541C200 541 160 541 120 541C80 541 40 541 20 541L0 541Z" fill="#95bdbd"></path><path d="M0 434L20 443.5C40 453 80 472 120 478C160 484 200 477 240 467.3C280 457.7 320 445.3 360 443.2C400 441 440 449 480 449.5C520 450 560 443 600 441.8C640 440.7 680 445.3 720 452.3C760 459.3 800 468.7 840 467C880 465.3 920 452.7 940 446.3L960 440L960 541L940 541C920 541 880 541 840 541C800 541 760 541 720 541C680 541 640 541 600 541C560 541 520 541 480 541C440 541 400 541 360 541C320 541 280 541 240 541C200 541 160 541 120 541C80 541 40 541 20 541L0 541Z" fill="#70a5a5"></path><path d="M0 475L20 478.5C40 482 80 489 120 495.7C160 502.3 200 508.7 240 507C280 505.3 320 495.7 360 494.2C400 492.7 440 499.3 480 504C520 508.7 560 511.3 600 510.2C640 509 680 504 720 503.5C760 503 800 507 840 502.8C880 498.7 920 486.3 940 480.2L960 474L960 541L940 541C920 541 880 541 840 541C800 541 760 541 720 541C680 541 640 541 600 541C560 541 520 541 480 541C440 541 400 541 360 541C320 541 280 541 240 541C200 541 160 541 120 541C80 541 40 541 20 541L0 541Z" fill="#488d8d"></path></svg>